<svg width="200" height="200" viewBox="0 0 60 60" xmlns="http://www.w3.org/2000/svg">
  <path
    d="M59.848,23.97l-10-16c-0.104-0.166-0.255-0.299-0.434-0.38l-7.635-3.471L38.414,2.59
      c-0.28-0.128-0.602-0.119-0.875,0.022c-0.271,0.142-0.465,0.4-0.521,0.701c-1.24,6.54-5.776,7.581-7.107,7.746
      c-0.012,0.001-0.023-0.005-0.035-0.003c-0.202,0.026-0.34,0.035-0.339,0.036c-0.01,0-0.035-0.002-0.06-0.004
      c-0.011-0.001-0.018-0.001-0.032-0.002c-0.029-0.002-0.074-0.008-0.115-0.013c-0.027-0.003-0.05-0.005-0.082-0.01
      c-0.044-0.006-0.101-0.017-0.154-0.026c-0.043-0.007-0.081-0.013-0.129-0.023c-0.056-0.012-0.123-0.029-0.185-0.044
      c-0.056-0.014-0.108-0.025-0.169-0.042c-0.067-0.018-0.142-0.045-0.213-0.067c-0.067-0.021-0.131-0.04-0.203-0.066
      c-0.073-0.026-0.153-0.062-0.231-0.093c-0.078-0.032-0.154-0.06-0.235-0.097c-0.079-0.036-0.163-0.083-0.245-0.125
      c-0.085-0.044-0.169-0.083-0.257-0.133c-0.084-0.048-0.171-0.108-0.257-0.162c-0.09-0.057-0.179-0.109-0.271-0.174
      c-0.086-0.061-0.174-0.135-0.262-0.203c-0.093-0.073-0.186-0.139-0.28-0.22c-0.087-0.075-0.174-0.166-0.261-0.249
      c-0.094-0.09-0.188-0.173-0.282-0.272c-0.087-0.092-0.172-0.202-0.258-0.302c-0.092-0.108-0.185-0.208-0.275-0.327
      c-0.085-0.111-0.166-0.242-0.249-0.362c-0.088-0.128-0.177-0.247-0.262-0.385c-0.081-0.133-0.157-0.287-0.235-0.43
      c-0.081-0.148-0.165-0.286-0.242-0.446c-0.081-0.167-0.153-0.357-0.229-0.537c-0.067-0.16-0.139-0.308-0.202-0.478
      c-0.08-0.214-0.149-0.456-0.222-0.688c-0.05-0.161-0.106-0.307-0.153-0.476c-0.114-0.414-0.216-0.854-0.305-1.322
      c-0.057-0.301-0.25-0.56-0.521-0.701c-0.272-0.142-0.595-0.15-0.875-0.022l-3.363,1.528l-7.635,3.47
      c-0.179,0.081-0.33,0.214-0.434,0.38l-10,16c-0.275,0.44-0.168,1.019,0.248,1.33l8,6c0.421,0.317,1.018,0.251,1.358-0.149
      L14,26.203V56.5c0,0.553,0.447,1,1,1h30c0.553,0,1-0.447,1-1V26.62l3.187,4.461c0.313,0.438,0.92,0.55,1.368,0.251l9-6
      C60.005,25.032,60.135,24.429,59.848,23.97z"
    fill="#007BFF"
    stroke="#000"
    stroke-width="1"
  />
</svg>
